{
    "asset" : {
        "generator" : "Khronos glTF Blender I/O v1.3.48",
        "version" : "2.0"
    },
    "scene" : 0,
    "scenes" : [
        {
            "name" : "Scene",
            "nodes" : [
                0
            ]
        }
    ],
    "nodes" : [
        {
            "mesh" : 0,
            "name" : "Cube.001",
            "rotation" : [
                0,
                -0.7071068286895752,
                0,
                0.7071068286895752
            ],
            "scale" : [
                0.7185045480728149,
                0.7185045480728149,
                0.7185045480728149
            ],
            "translation" : [
                1.0081192255020142,
                1.4713234901428223,
                -0.02482583560049534
            ]
        }
    ],
    "materials" : [
        {
            "doubleSided" : true,
            "emissiveFactor" : [
                0,
                0,
                0
            ],
            "name" : "White",
            "pbrMetallicRoughness" : {
                "baseColorFactor" : [
                    1,
                    1,
                    1,
                    1
                ],
                "metallicFactor" : 0,
                "roughnessFactor" : 0.5
            }
        }
    ],
    "meshes" : [
        {
            "name" : "Cube.030",
            "primitives" : [
                {
                    "attributes" : {
                        "POSITION" : 0,
                        "NORMAL" : 1,
                        "TEXCOORD_0" : 2
                    },
                    "indices" : 3,
                    "material" : 0
                }
            ]
        }
    ],
    "accessors" : [
        {
            "bufferView" : 0,
            "componentType" : 5126,
            "count" : 484,
            "max" : [
                0.0345521941781044,
                0.5806093215942383,
                0.8692139387130737
            ],
            "min" : [
                -0.0685897171497345,
                -0.5806093215942383,
                -0.8692139387130737
            ],
            "type" : "VEC3"
        },
        {
            "bufferView" : 1,
            "componentType" : 5126,
            "count" : 484,
            "type" : "VEC3"
        },
        {
            "bufferView" : 2,
            "componentType" : 5126,
            "count" : 484,
            "type" : "VEC2"
        },
        {
            "bufferView" : 3,
            "componentType" : 5123,
            "count" : 834,
            "type" : "SCALAR"
        }
    ],
    "bufferViews" : [
        {
            "buffer" : 0,
            "byteLength" : 5808,
            "byteOffset" : 0
        },
        {
            "buffer" : 0,
            "byteLength" : 5808,
            "byteOffset" : 5808
        },
        {
            "buffer" : 0,
            "byteLength" : 3872,
            "byteOffset" : 11616
        },
        {
            "buffer" : 0,
            "byteLength" : 1668,
            "byteOffset" : 15488
        }
    ],
    "buffers" : [
        {
            "byteLength" : 17156,
            "uri" : "data:application/octet-stream;base64,"
        }
    ]
}
