<?xml version="1.0" encoding="utf-8"?>
<!-- Generator: Adobe Illustrator 24.0.3, SVG Export Plug-In . SVG Version: 6.00 Build 0)  -->
<svg version="1.1" id="Layer_1" xmlns="http://www.w3.org/2000/svg" xmlns:xlink="http://www.w3.org/1999/xlink" x="0px" y="0px"
	 viewBox="0 0 1366 402.8" style="enable-background:new 0 0 1366 402.8;" xml:space="preserve">
<style type="text/css">
	.st0{fill:#E8E8E8;}
</style>
<path class="st0" d="M1207.3,259.7c-15.9,0-31.2,2.3-45.7,6.7c-1.4-38.8-22.1-72.7-52.9-92.2c0.2-2.5,0.3-5,0.3-7.5
	c0-50.8-41.2-92-92-92c-40.1,0-74.2,25.7-86.9,61.5c-21.1-31.5-57-52.2-97.7-52.2c-6.8,0-13.6,0.6-20.1,1.7c0.1-2.6,0.2-5.2,0.2-7.9
	c0-28-7.1-54.4-19.6-77.4H364.1H0v402h0l0,0.5h785.8h579.2C1357.3,322.5,1289.6,259.7,1207.3,259.7z"/>
</svg>
