<svg id="Layer_1" data-name="Layer 1" xmlns="http://www.w3.org/2000/svg" viewBox="0 0 289.18 87.32"><defs><style>.cls-1{stroke:#000;stroke-miterlimit:10;stroke-width:2px;}</style></defs><title>logo</title><path class="cls-1" d="M312.79,344.66a2.18,2.18,0,0,1,.25-1l40.52-80.48a2.12,2.12,0,0,1,.91-.94,2.73,2.73,0,0,1,1.33-.33,3.11,3.11,0,0,1,1.95.66,2.07,2.07,0,0,1,.85,1.7,2.83,2.83,0,0,1-.37,1.27L317.9,345.75a2.46,2.46,0,0,1-2.25,1.45,3,3,0,0,1-2-.76A2.3,2.3,0,0,1,312.79,344.66Z" transform="translate(-155.41 -260.88)"/><path class="cls-1" d="M388.55,274.47,442,296.37a2.29,2.29,0,0,1,1.16,1.21,4.71,4.71,0,0,1,.42,2,5.1,5.1,0,0,1-.42,2.09,2.32,2.32,0,0,1-1.16,1.24l-52.73,21.84a2,2,0,0,1-.61.12,2.33,2.33,0,0,1-1.85-1.06,3.53,3.53,0,0,1-.82-2.21,1.87,1.87,0,0,1,1.27-1.93l49.15-19.85-49.75-20.15a2.33,2.33,0,0,1-1.64-2.3,3.27,3.27,0,0,1,.79-2.12,2.36,2.36,0,0,1,1.88-1A2,2,0,0,1,388.55,274.47Z" transform="translate(-155.41 -260.88)"/><path class="cls-1" d="M291.17,333.5H239.42a2.75,2.75,0,0,1-2.75-2.75V284.66h5.49V328h46.26V284.66h5.5v46.09A2.75,2.75,0,0,1,291.17,333.5Z" transform="translate(-155.41 -260.88)"/><path class="cls-1" d="M232.14,293a2.75,2.75,0,0,1-1.68-4.92l33.15-25.61a2.76,2.76,0,0,1,3.36,0l33.15,25.61a2.75,2.75,0,1,1-3.36,4.35l-31.47-24.31-31.47,24.31A2.77,2.77,0,0,1,232.14,293Z" transform="translate(-155.41 -260.88)"/><path class="cls-1" d="M211.45,324.69,158,302.78a2.26,2.26,0,0,1-1.16-1.21,4.67,4.67,0,0,1-.42-2,5.07,5.07,0,0,1,.42-2.09,2.26,2.26,0,0,1,1.16-1.24l52.73-21.85a2,2,0,0,1,.61-.12,2.35,2.35,0,0,1,1.85,1.06,3.57,3.57,0,0,1,.82,2.21,1.88,1.88,0,0,1-1.27,1.94l-49.15,19.85,49.75,20.15a2.33,2.33,0,0,1,1.64,2.3,3.24,3.24,0,0,1-.79,2.11,2.34,2.34,0,0,1-1.88,1A2.16,2.16,0,0,1,211.45,324.69Z" transform="translate(-155.41 -260.88)"/></svg>